<svg width="1667" height="891" viewBox="0 0 1667 891" fill="none" xmlns="http://www.w3.org/2000/svg">
<rect x="438.909" y="133.441" width="1227.35" height="757.089" rx="33.3519" fill="#BBBBBB"/>
<rect x="0.331055" y="18.377" width="1227.35" height="757.089" rx="33.3519" fill="#343434"/>
<rect x="1306.89" y="511.152" width="263.48" height="120.067" fill="white" stroke="black" stroke-width="1.6676"/>
<rect x="1225.51" y="210.905" width="440.747" height="195.711" fill="#434343"/>
<path d="M1328.35 475.261H1334.56C1334.44 477.962 1333.89 480.261 1332.92 482.158C1331.94 484.038 1330.54 485.474 1328.71 486.465C1326.9 487.457 1324.69 487.952 1322.07 487.952C1320.09 487.952 1318.31 487.593 1316.74 486.875C1315.18 486.158 1313.86 485.123 1312.76 483.773C1311.67 482.406 1310.83 480.739 1310.25 478.774C1309.69 476.808 1309.41 474.577 1309.41 472.082V465.467C1309.41 462.972 1309.7 460.741 1310.28 458.776C1310.88 456.81 1311.73 455.143 1312.84 453.776C1313.95 452.409 1315.3 451.375 1316.89 450.674C1318.5 449.956 1320.31 449.597 1322.33 449.597C1324.91 449.597 1327.08 450.093 1328.84 451.084C1330.6 452.075 1331.96 453.528 1332.92 455.443C1333.87 457.357 1334.43 459.69 1334.58 462.442H1328.38C1328.29 460.579 1328.04 459.092 1327.61 457.981C1327.2 456.853 1326.57 456.041 1325.71 455.545C1324.87 455.049 1323.75 454.802 1322.33 454.802C1321.15 454.802 1320.13 455.024 1319.28 455.468C1318.44 455.913 1317.75 456.579 1317.2 457.468C1316.67 458.34 1316.27 459.442 1315.99 460.775C1315.74 462.091 1315.61 463.638 1315.61 465.416V472.082C1315.61 473.791 1315.72 475.304 1315.94 476.62C1316.17 477.936 1316.52 479.056 1317.02 479.979C1317.52 480.885 1318.17 481.577 1318.99 482.055C1319.81 482.517 1320.84 482.748 1322.07 482.748C1323.54 482.748 1324.71 482.517 1325.58 482.055C1326.47 481.594 1327.13 480.816 1327.56 479.722C1327.98 478.628 1328.25 477.141 1328.35 475.261ZM1351.02 480.517L1358.96 450.11H1365.71L1354.55 487.439H1349.94L1351.02 480.517ZM1344.07 450.11L1351.97 480.517L1353.12 487.439H1348.5L1337.35 450.11H1344.07ZM1388.19 475.261H1394.4C1394.28 477.962 1393.73 480.261 1392.76 482.158C1391.78 484.038 1390.38 485.474 1388.55 486.465C1386.74 487.457 1384.53 487.952 1381.91 487.952C1379.93 487.952 1378.15 487.593 1376.58 486.875C1375.02 486.158 1373.7 485.123 1372.6 483.773C1371.51 482.406 1370.67 480.739 1370.09 478.774C1369.53 476.808 1369.25 474.577 1369.25 472.082V465.467C1369.25 462.972 1369.54 460.741 1370.12 458.776C1370.72 456.81 1371.57 455.143 1372.68 453.776C1373.79 452.409 1375.14 451.375 1376.73 450.674C1378.34 449.956 1380.15 449.597 1382.17 449.597C1384.75 449.597 1386.92 450.093 1388.68 451.084C1390.44 452.075 1391.8 453.528 1392.76 455.443C1393.71 457.357 1394.27 459.69 1394.42 462.442H1388.22C1388.13 460.579 1387.88 459.092 1387.45 457.981C1387.04 456.853 1386.41 456.041 1385.55 455.545C1384.71 455.049 1383.59 454.802 1382.17 454.802C1380.99 454.802 1379.97 455.024 1379.12 455.468C1378.28 455.913 1377.59 456.579 1377.04 457.468C1376.51 458.34 1376.11 459.442 1375.83 460.775C1375.58 462.091 1375.45 463.638 1375.45 465.416V472.082C1375.45 473.791 1375.56 475.304 1375.78 476.62C1376.01 477.936 1376.36 479.056 1376.86 479.979C1377.36 480.885 1378.01 481.577 1378.83 482.055C1379.65 482.517 1380.68 482.748 1381.91 482.748C1383.38 482.748 1384.55 482.517 1385.42 482.055C1386.31 481.594 1386.97 480.816 1387.4 479.722C1387.82 478.628 1388.09 477.141 1388.19 475.261ZM1399.81 484.312C1399.81 483.32 1400.12 482.491 1400.76 481.825C1401.4 481.158 1402.29 480.825 1403.42 480.825C1404.55 480.825 1405.43 481.158 1406.06 481.825C1406.71 482.491 1407.04 483.32 1407.04 484.312C1407.04 485.269 1406.71 486.081 1406.06 486.747C1405.43 487.414 1404.55 487.747 1403.42 487.747C1402.29 487.747 1401.4 487.414 1400.76 486.747C1400.12 486.081 1399.81 485.269 1399.81 484.312ZM1399.78 462.544C1399.78 461.553 1400.1 460.724 1400.73 460.057C1401.38 459.391 1402.27 459.058 1403.4 459.058C1404.52 459.058 1405.4 459.391 1406.04 460.057C1406.69 460.724 1407.01 461.553 1407.01 462.544C1407.01 463.502 1406.69 464.313 1406.04 464.98C1405.4 465.647 1404.52 465.98 1403.4 465.98C1402.27 465.98 1401.38 465.647 1400.73 464.98C1400.1 464.313 1399.78 463.502 1399.78 462.544Z" fill="black"/>
<path d="M349.434 155.924C342.603 155.924 336.186 154.162 330.182 150.636C324.177 147.111 319.302 142.07 315.556 135.515C311.866 128.96 310.02 121.193 310.02 112.214C310.02 103.235 311.866 95.5511 315.556 89.1613C319.247 82.7163 324.095 77.7862 330.099 74.3709C336.103 70.9556 342.548 69.248 349.434 69.248C356.264 69.248 362.213 70.6251 367.281 73.3794C372.349 76.0786 376.425 79.7417 379.51 84.3689C382.65 88.996 384.688 94.2291 385.625 100.068C386.616 105.852 386.423 111.829 385.046 117.998H330.925V104.613H365.711L361.911 107.091C362.076 105.163 361.993 103.208 361.663 101.225C361.387 99.2418 360.809 97.424 359.927 95.7715C359.046 94.0638 357.779 92.7142 356.127 91.7227C354.529 90.6761 352.463 90.1528 349.93 90.1528C347.12 90.1528 344.669 90.8414 342.576 92.2185C340.538 93.5405 338.94 95.496 337.783 98.085C336.682 100.619 336.131 103.731 336.131 107.422V117.833C336.131 121.303 336.626 124.306 337.618 126.839C338.61 129.373 340.069 131.356 341.997 132.789C343.98 134.166 346.459 134.854 349.434 134.854C351.858 134.854 353.978 134.359 355.796 133.367C357.614 132.375 358.881 130.806 359.597 128.657H385.873C385.046 133.725 383.008 138.325 379.758 142.456C376.563 146.587 372.377 149.865 367.199 152.289C362.076 154.712 356.154 155.924 349.434 155.924Z" fill="white"/>
<path fill-rule="evenodd" clip-rule="evenodd" d="M272.859 150.693C278.863 154.218 285.281 155.981 292.111 155.981C298.832 155.981 304.753 154.769 309.876 152.345C315.054 149.922 319.241 146.644 322.436 142.513C325.686 138.381 327.724 133.782 328.55 128.714H302.274C301.558 130.862 300.291 132.432 298.474 133.424C296.656 134.415 294.535 134.911 292.111 134.911C289.137 134.911 286.658 134.222 284.675 132.845C282.747 131.413 281.287 129.43 280.295 126.896C279.32 124.403 278.824 121.455 278.809 118.055H327.724C329.101 111.885 329.294 105.909 328.302 100.125C327.366 94.2858 325.328 89.0527 322.188 84.4255C319.103 79.7984 315.027 76.1352 309.959 73.4361C304.891 70.6818 298.942 69.3047 292.111 69.3047C289.335 69.3047 286.63 69.5824 283.996 70.1378H284.171L260.351 138.943C263.759 143.881 267.928 147.798 272.859 150.693ZM278.924 104.669C279.138 102.181 279.651 100.005 280.461 98.1417C281.618 95.5527 283.215 93.5972 285.253 92.2752C287.346 90.898 289.798 90.2095 292.607 90.2095C295.141 90.2095 297.207 90.7328 298.804 91.7794C300.457 92.7709 301.724 94.1205 302.605 95.8281C303.486 97.4807 304.065 99.2985 304.34 101.282C304.53 102.42 304.638 103.549 304.664 104.669H278.924Z" fill="white"/>
<path d="M189.586 70.4858H220.241L233.544 129.317H232.387L245.691 70.4858H276.263L248.087 151.874H217.762L189.586 70.4858Z" fill="white"/>
<path d="M87.4877 151.874V69.9901H113.929V151.874H87.4877ZM108.31 117.17C108.31 106.098 109.715 97.0093 112.524 89.9033C115.333 82.7974 118.886 77.5367 123.183 74.1215C127.479 70.7062 131.859 68.9986 136.321 68.9986C137.202 68.9986 138.083 69.0536 138.965 69.1638C139.846 69.2189 140.672 69.3291 141.444 69.4943L141.691 96.1004C140.314 95.9351 138.91 95.825 137.477 95.7699C136.045 95.6597 134.696 95.6046 133.429 95.6046C129.573 95.6046 126.157 96.3207 123.183 97.753C120.263 99.1852 117.977 101.471 116.325 104.611C114.727 107.751 113.929 111.937 113.929 117.17H108.31Z" fill="white"/>
<path d="M211.282 152.056H180.627L167.324 93.2253H168.481L155.178 152.056H124.606L152.782 70.668H183.106L211.282 152.056Z" fill="white"/>
<path d="M441.543 153.28V105.852C441.543 101.555 440.496 98.388 438.403 96.3499C436.31 94.2566 433.776 93.21 430.801 93.21C427.772 93.21 424.99 94.0638 422.456 95.7715C419.922 97.4791 417.884 100.233 416.341 104.034C414.854 107.78 414.11 112.765 414.11 118.99H406.096C406.096 107.312 407.473 97.8096 410.227 90.4833C413.036 83.157 416.837 77.7862 421.63 74.3709C426.477 70.9556 431.958 69.248 438.072 69.248C445.068 69.248 450.77 70.8179 455.176 73.9578C459.638 77.0976 462.916 81.4218 465.009 86.9303C467.102 92.4388 468.149 98.7461 468.149 105.852V153.28H441.543ZM387.67 153.28V71.8921H410.971L414.11 85.3604V153.28H387.67Z" fill="white"/>
</svg>
