<svg width="1072" height="582" viewBox="0 0 1072 582" fill="none" xmlns="http://www.w3.org/2000/svg">
<path d="M726.127 409.66C708.15 409.66 691.261 405.021 675.459 395.743C659.658 386.465 646.828 373.2 636.97 355.948C627.257 338.697 622.4 318.256 622.4 294.626C622.4 270.996 627.257 250.772 636.97 233.956C646.683 216.994 659.44 204.019 675.242 195.031C691.044 186.043 708.005 181.549 726.127 181.549C744.103 181.549 759.76 185.173 773.097 192.422C786.434 199.525 797.162 209.166 805.28 221.343C813.544 233.521 818.908 247.293 821.372 262.66C823.981 277.882 823.474 293.611 819.85 309.848H677.417V274.62H768.965L758.962 281.144C759.397 276.07 759.18 270.923 758.31 265.704C757.585 260.485 756.063 255.701 753.743 251.352C751.424 246.858 748.09 243.306 743.74 240.697C739.536 237.943 734.1 236.565 727.431 236.565C720.038 236.565 713.587 238.377 708.078 242.002C702.714 245.481 698.51 250.627 695.465 257.441C692.566 264.11 691.116 272.3 691.116 282.013V309.413C691.116 318.546 692.421 326.447 695.03 333.115C697.64 339.784 701.482 345.003 706.556 348.772C711.775 352.397 718.298 354.209 726.127 354.209C732.505 354.209 738.087 352.904 742.871 350.294C747.655 347.685 750.989 343.553 752.874 337.899H822.024C819.85 351.237 814.486 363.342 805.933 374.215C797.524 385.087 786.507 393.713 772.879 400.092C759.397 406.47 743.813 409.66 726.127 409.66Z" fill="white"/>
<path fill-rule="evenodd" clip-rule="evenodd" d="M524.597 395.892C540.399 405.17 557.288 409.809 575.264 409.809C592.951 409.809 608.535 406.62 622.017 400.241C635.645 393.862 646.662 385.236 655.071 374.364C663.624 363.491 668.988 351.386 671.162 338.049H602.011C600.127 343.702 596.793 347.834 592.009 350.444C587.225 353.053 581.643 354.358 575.264 354.358C567.436 354.358 560.912 352.546 555.693 348.921C550.62 345.152 546.778 339.933 544.168 333.265C541.6 326.702 540.296 318.946 540.255 309.997H668.988C672.612 293.76 673.119 278.031 670.51 262.809C668.045 247.442 662.682 233.67 654.418 221.493C646.3 209.315 635.572 199.675 622.235 192.571C608.898 185.322 593.241 181.698 575.264 181.698C567.958 181.698 560.841 182.429 553.912 183.89H554.37L491.682 364.97C500.65 377.966 511.621 388.273 524.597 395.892ZM540.559 274.769C541.123 268.22 542.471 262.494 544.603 257.59C547.648 250.777 551.852 245.63 557.216 242.151C562.725 238.527 569.176 236.714 576.569 236.714C583.238 236.714 588.674 238.092 592.878 240.846C597.227 243.456 600.562 247.007 602.881 251.501C605.201 255.851 606.723 260.635 607.448 265.853C607.947 268.849 608.232 271.821 608.301 274.769H540.559Z" fill="white"/>
<path d="M305.45 184.806H386.126L421.136 339.635H418.091L453.102 184.806H533.56L459.408 399H379.602L305.45 184.806Z" fill="white"/>
<path d="M36.75 399V183.502H106.336V399H36.75ZM91.5487 307.669C91.5487 278.53 95.2454 254.61 102.639 235.908C110.032 217.207 119.383 203.363 130.691 194.375C141.998 185.386 153.523 180.892 165.266 180.892C167.586 180.892 169.905 181.037 172.225 181.327C174.544 181.472 176.719 181.762 178.748 182.197L179.401 252.218C175.776 251.783 172.08 251.493 168.31 251.348C164.541 251.058 160.989 250.913 157.655 250.913C147.507 250.913 138.519 252.798 130.691 256.567C123.007 260.336 116.991 266.352 112.642 274.616C108.438 282.879 106.336 293.897 106.336 307.669H91.5487Z" fill="white"/>
<path d="M362.545 396.269H281.869L246.858 241.44H249.903L214.892 396.269H134.434L208.586 182.075H288.392L362.545 396.269Z" fill="white"/>
<path d="M968.535 402.701V277.882C968.535 266.574 965.78 258.238 960.271 252.874C954.763 247.366 948.094 244.611 940.266 244.611C932.292 244.611 924.971 246.858 918.303 251.352C911.634 255.846 906.27 263.095 902.211 273.098C898.297 282.956 896.34 296.076 896.34 312.457H875.246C875.246 281.724 878.871 256.716 886.119 237.435C893.513 218.154 903.516 204.019 916.128 195.031C928.885 186.043 943.31 181.549 959.402 181.549C977.813 181.549 992.817 185.681 1004.41 193.944C1016.16 202.207 1024.78 213.588 1030.29 228.085C1035.8 242.582 1038.56 259.181 1038.56 277.882V402.701H968.535ZM826.754 402.701V188.508H888.076L896.34 223.953V402.701H826.754Z" fill="white"/>
</svg>
